<?xml version="1.0" encoding="UTF-8" standalone="no"?>
<!-- Created with Inkscape (http://www.inkscape.org/) -->

<svg
   xmlns:dc="http://purl.org/dc/elements/1.1/"
   xmlns:cc="http://creativecommons.org/ns#"
   xmlns:rdf="http://www.w3.org/1999/02/22-rdf-syntax-ns#"
   xmlns:svg="http://www.w3.org/2000/svg"
   xmlns="http://www.w3.org/2000/svg"
   xmlns:sodipodi="http://sodipodi.sourceforge.net/DTD/sodipodi-0.dtd"
   xmlns:inkscape="http://www.inkscape.org/namespaces/inkscape"
   width="500"
   height="100"
   id="svg4115"
   version="1.1"
   inkscape:version="0.91 r13725"
   sodipodi:docname="line_circs_site1.svg">
  <defs
     id="defs4117" />
  <sodipodi:namedview
     id="base"
     pagecolor="#ffffff"
     bordercolor="#666666"
     borderopacity="1.0"
     inkscape:pageopacity="0.0"
     inkscape:pageshadow="2"
     inkscape:zoom="1.894"
     inkscape:cx="185.71173"
     inkscape:cy="50"
     inkscape:document-units="px"
     inkscape:current-layer="layer1"
     showgrid="true"
     inkscape:snap-grids="true"
     inkscape:window-width="1496"
     inkscape:window-height="671"
     inkscape:window-x="0"
     inkscape:window-y="244"
     inkscape:window-maximized="0">
    <inkscape:grid
       type="xygrid"
       id="grid4123"
       empspacing="5"
       visible="true"
       enabled="true"
       snapvisiblegridlinesonly="true" />
  </sodipodi:namedview>
  <metadata
     id="metadata4120">
    <rdf:RDF>
      <cc:Work
         rdf:about="">
        <dc:format>image/svg+xml</dc:format>
        <dc:type
           rdf:resource="http://purl.org/dc/dcmitype/StillImage" />
        <dc:title></dc:title>
      </cc:Work>
    </rdf:RDF>
  </metadata>
  <g
     inkscape:label="Layer 1"
     inkscape:groupmode="layer"
     id="layer1"
     transform="translate(0,-952.36218)">
    <path
       style="fill:none;stroke:#000000;stroke-width:8;stroke-linecap:square;stroke-linejoin:miter;stroke-miterlimit:4;stroke-opacity:1;stroke-dasharray:none"
       d="m 50,1002.3622 400,0"
       id="path4127"
       inkscape:connector-curvature="0" />
    <path
       sodipodi:type="arc"
       style="fill:#ffffff;fill-opacity:1;stroke:#000000;stroke-width:6;stroke-linecap:square;stroke-linejoin:miter;stroke-miterlimit:4;stroke-opacity:1;stroke-dasharray:none;stroke-dashoffset:0"
       id="path4637"
       sodipodi:cx="245"
       sodipodi:cy="50"
       sodipodi:rx="10"
       sodipodi:ry="10"
       d="M 255,50 A 10,10 0 0 1 245,60 10,10 0 0 1 235,50 10,10 0 0 1 245,40 10,10 0 0 1 255,50 Z"
       transform="translate(5,952.36218)" />
    <path
       sodipodi:type="arc"
       style="fill:#000000;fill-opacity:1;stroke:#000000;stroke-width:6;stroke-linecap:square;stroke-linejoin:miter;stroke-miterlimit:4;stroke-opacity:1;stroke-dasharray:none;stroke-dashoffset:0"
       id="path4637-7"
       sodipodi:cx="245"
       sodipodi:cy="50"
       sodipodi:rx="10"
       sodipodi:ry="10"
       d="M 255,50 A 10,10 0 0 1 245,60 10,10 0 0 1 235,50 10,10 0 0 1 245,40 10,10 0 0 1 255,50 Z"
       transform="translate(-195,952.36218)" />
    <path
       sodipodi:type="arc"
       style="fill:#ffffff;fill-opacity:1;stroke:#000000;stroke-width:6;stroke-linecap:square;stroke-linejoin:miter;stroke-miterlimit:4;stroke-opacity:1;stroke-dasharray:none;stroke-dashoffset:0"
       id="path4637-7-5"
       sodipodi:cx="245"
       sodipodi:cy="50"
       sodipodi:rx="10"
       sodipodi:ry="10"
       d="M 255,50 A 10,10 0 0 1 245,60 10,10 0 0 1 235,50 10,10 0 0 1 245,40 10,10 0 0 1 255,50 Z"
       transform="translate(-145,952.36218)" />
    <path
       sodipodi:type="arc"
       style="fill:#ffffff;fill-opacity:1;stroke:#000000;stroke-width:6;stroke-linecap:square;stroke-linejoin:miter;stroke-miterlimit:4;stroke-opacity:1;stroke-dasharray:none;stroke-dashoffset:0"
       id="path4637-7-7"
       sodipodi:cx="245"
       sodipodi:cy="50"
       sodipodi:rx="10"
       sodipodi:ry="10"
       d="M 255,50 A 10,10 0 0 1 245,60 10,10 0 0 1 235,50 10,10 0 0 1 245,40 10,10 0 0 1 255,50 Z"
       transform="translate(-95,952.36218)" />
    <path
       sodipodi:type="arc"
       style="fill:#ffffff;fill-opacity:1;stroke:#000000;stroke-width:6;stroke-linecap:square;stroke-linejoin:miter;stroke-miterlimit:4;stroke-opacity:1;stroke-dasharray:none;stroke-dashoffset:0"
       id="path4637-7-8"
       sodipodi:cx="245"
       sodipodi:cy="50"
       sodipodi:rx="10"
       sodipodi:ry="10"
       d="M 255,50 A 10,10 0 0 1 245,60 10,10 0 0 1 235,50 10,10 0 0 1 245,40 10,10 0 0 1 255,50 Z"
       transform="translate(-45,952.36218)" />
    <path
       sodipodi:type="arc"
       style="fill:#ffffff;fill-opacity:1;stroke:#000000;stroke-width:6;stroke-linecap:square;stroke-linejoin:miter;stroke-miterlimit:4;stroke-opacity:1;stroke-dasharray:none;stroke-dashoffset:0"
       id="path4637-7-2"
       sodipodi:cx="245"
       sodipodi:cy="50"
       sodipodi:rx="10"
       sodipodi:ry="10"
       d="M 255,50 A 10,10 0 0 1 245,60 10,10 0 0 1 235,50 10,10 0 0 1 245,40 10,10 0 0 1 255,50 Z"
       transform="translate(55,952.36218)" />
    <path
       sodipodi:type="arc"
       style="fill:#ffffff;fill-opacity:1;stroke:#000000;stroke-width:6;stroke-linecap:square;stroke-linejoin:miter;stroke-miterlimit:4;stroke-opacity:1;stroke-dasharray:none;stroke-dashoffset:0"
       id="path4637-7-5-7"
       sodipodi:cx="245"
       sodipodi:cy="50"
       sodipodi:rx="10"
       sodipodi:ry="10"
       d="M 255,50 A 10,10 0 0 1 245,60 10,10 0 0 1 235,50 10,10 0 0 1 245,40 10,10 0 0 1 255,50 Z"
       transform="translate(105,952.36218)" />
    <path
       sodipodi:type="arc"
       style="fill:#ffffff;fill-opacity:1;stroke:#000000;stroke-width:6;stroke-linecap:square;stroke-linejoin:miter;stroke-miterlimit:4;stroke-opacity:1;stroke-dasharray:none;stroke-dashoffset:0"
       id="path4637-7-7-8"
       sodipodi:cx="245"
       sodipodi:cy="50"
       sodipodi:rx="10"
       sodipodi:ry="10"
       d="M 255,50 A 10,10 0 0 1 245,60 10,10 0 0 1 235,50 10,10 0 0 1 245,40 10,10 0 0 1 255,50 Z"
       transform="translate(155,952.36218)" />
    <path
       sodipodi:type="arc"
       style="fill:#ffffff;fill-opacity:1;stroke:#000000;stroke-width:6;stroke-linecap:square;stroke-linejoin:miter;stroke-miterlimit:4;stroke-opacity:1;stroke-dasharray:none;stroke-dashoffset:0"
       id="path4637-7-8-0"
       sodipodi:cx="245"
       sodipodi:cy="50"
       sodipodi:rx="10"
       sodipodi:ry="10"
       d="M 255,50 A 10,10 0 0 1 245,60 10,10 0 0 1 235,50 10,10 0 0 1 245,40 10,10 0 0 1 255,50 Z"
       transform="translate(205,952.36218)" />
  </g>
</svg>
